<?xml version="1.0" encoding="UTF-8" standalone="no"?>
<!DOCTYPE svg PUBLIC "-//W3C//DTD SVG 1.1//EN" "http://www.w3.org/Graphics/SVG/1.1/DTD/svg11.dtd">
<svg version="1.1" xmlns="http://www.w3.org/2000/svg" xmlns:xlink="http://www.w3.org/1999/xlink" preserveAspectRatio="xMidYMid meet" viewBox="0 0 640 640" width="640" height="640"><defs><path d="M120 347.44C120 269.84 224.39 206.93 353.17 206.93C481.94 206.93 586.34 269.83 586.34 347.44C586.34 425.04 481.96 487.95 353.18 487.95C321.9 487.95 292.05 484.24 264.8 477.52C259.04 480.01 230.28 492.45 178.51 514.85L191.92 448.92C143.97 407.87 120 374.04 120 347.44Z" id="a3j5RM1835"></path></defs><g><g><g><g><filter id="shadow8923655" x="86" y="172.93" width="537.34" height="377.92" filterUnits="userSpaceOnUse" primitiveUnits="userSpaceOnUse"><feFlood></feFlood><feComposite in2="SourceAlpha" operator="in"></feComposite><feGaussianBlur stdDeviation="3.61"></feGaussianBlur><feOffset dx="3" dy="2" result="afterOffset"></feOffset><feFlood flood-color="#000000" flood-opacity="0.5"></feFlood><feComposite in2="afterOffset" operator="in"></feComposite><feMorphology operator="dilate" radius="0"></feMorphology><feComposite in2="SourceAlpha" operator="out"></feComposite></filter><path d="M120 347.44C120 269.84 224.39 206.93 353.17 206.93C481.94 206.93 586.34 269.83 586.34 347.44C586.34 425.04 481.96 487.95 353.18 487.95C321.9 487.95 292.05 484.24 264.8 477.52C259.04 480.01 230.28 492.45 178.51 514.85L191.92 448.92C143.97 407.87 120 374.04 120 347.44Z" id="c23JDdyNqY" fill="white" fill-opacity="1" filter="url(#shadow8923655)"></path></g><use xlink:href="#a3j5RM1835" opacity="1" fill="#fff1d6" fill-opacity="1"></use><g><use xlink:href="#a3j5RM1835" opacity="1" fill-opacity="0" stroke="#fff1d6" stroke-width="1" stroke-opacity="1"></use></g></g></g></g></svg>