<svg xmlns="http://www.w3.org/2000/svg" xmlns:xlink="http://www.w3.org/1999/xlink" width="640" height="640" preserveAspectRatio="xMidYMid meet" version="1.1" viewBox="0 0 640 640"><defs><path id="a3j5RM1835" d="M120 347.44C120 269.84 224.39 206.93 353.17 206.93C481.94 206.93 586.34 269.83 586.34 347.44C586.34 425.04 481.96 487.95 353.18 487.95C321.9 487.95 292.05 484.24 264.8 477.52C259.04 480.01 230.28 492.45 178.51 514.85L191.92 448.92C143.97 407.87 120 374.04 120 347.44Z"/></defs><g><g><g><g><filter id="shadow8923655" width="537.34" height="377.92" x="86" y="172.93" filterUnits="userSpaceOnUse" primitiveUnits="userSpaceOnUse"><feFlood/><feComposite in2="SourceAlpha" operator="in"/><feGaussianBlur stdDeviation="3.61"/><feOffset dx="3" dy="2" result="afterOffset"/><feFlood flood-color="#000" flood-opacity=".5"/><feComposite in2="afterOffset" operator="in"/><feMorphology operator="dilate" radius="0"/><feComposite in2="SourceAlpha" operator="out"/></filter><path id="c23JDdyNqY" fill="#fff" fill-opacity="1" d="M120 347.44C120 269.84 224.39 206.93 353.17 206.93C481.94 206.93 586.34 269.83 586.34 347.44C586.34 425.04 481.96 487.95 353.18 487.95C321.9 487.95 292.05 484.24 264.8 477.52C259.04 480.01 230.28 492.45 178.51 514.85L191.92 448.92C143.97 407.87 120 374.04 120 347.44Z" filter="url(#shadow8923655)"/></g><use fill="#fff1d6" fill-opacity="1" opacity="1" xlink:href="#a3j5RM1835"/><g><use fill-opacity="0" stroke="#fff1d6" stroke-opacity="1" stroke-width="1" opacity="1" xlink:href="#a3j5RM1835"/></g></g></g></g></svg>