<?xml version="1.0" encoding="UTF-8"?>
<svg viewBox="0 0 263 269" xmlns="http://www.w3.org/2000/svg">
<path d="M0 269H14.4L64.8 217.55L50.4 202.85L0 254.3V269Z" fill="#B6C9D6"/>
<path d="m140.4 4.4c65.52 0 118.8 54.39 118.8 121.27s-53.28 121.28-118.8 121.28-118.8-54.39-118.8-121.28 53.28-121.27 118.8-121.27zm0-3.675c-67.68 0-122.4 55.86-122.4 124.95s54.72 124.95 122.4 124.95 122.4-55.86 122.4-124.95-54.72-124.95-122.4-124.95z" fill="#788B9C"/>
<path d="m140.4 246.95c-65.52 0-118.8-54.39-118.8-121.28s53.28-121.28 118.8-121.28 118.8 54.39 118.8 121.28-53.28 121.28-118.8 121.28zm0-235.2c-61.56 0-111.6 51.082-111.6 113.92 0 62.843 50.04 113.92 111.6 113.92s111.6-51.082 111.6-113.92c0-62.842-50.04-113.92-111.6-113.92z" fill="#E1EBF2"/>
<path d="m140.4 15.425c59.4 0 108 49.612 108 110.25 0 60.637-48.6 110.25-108 110.25s-108-49.613-108-110.25c0-60.638 48.6-110.25 108-110.25zm0-3.675c-61.56 0-111.6 51.082-111.6 113.92 0 62.842 50.04 113.92 111.6 113.92s111.6-51.083 111.6-113.92c0-62.842-50.04-113.92-111.6-113.92zm-123.48 257.25 47.52-48.142-2.88-2.941-49.68 51.083h5.04zm-16.92-12.128 50.04-50.714-2.88-2.941-47.16 48.511v5.144z" fill="#788B9C"/>
<path d="m140.4 19.1c57.6 0 104.4 47.775 104.4 106.58s-46.8 106.58-104.4 106.58-104.4-47.775-104.4-106.58 46.8-106.58 104.4-106.58zm0-3.675c-59.76 0-108 49.245-108 110.25s48.24 110.25 108 110.25 108-49.245 108-110.25-48.24-110.25-108-110.25z" fill="#fff"/>
<path d="m214.43 139.42c2.27-4.31 3.57-9.21 3.57-14.42 0-13.242-8.318-24.514-20.002-28.956 0-0.014 2e-3 -0.028 2e-3 -0.044 0-23.196-18.804-42-42-42-19.568 0-35.962 13.402-40.626 31.514-2.952-0.97-6.098-1.514-9.374-1.514-15.384 0-28.046 11.586-29.78 26.504-10.408 2.202-18.22 11.434-18.22 22.496 0 12.702 10.298 23 23 23 0.354 0 0.704-0.024 1.052-0.044-8e-3 0.35-0.052 0.692-0.052 1.044 0 22.644 18.356 41 41 41 12.874 0 24.35-5.944 31.868-15.228 4.356 4.45 10.412 7.228 17.132 7.228 9.3 0 17.348-5.3 21.332-13.036 2.104 0.67 4.342 1.036 6.668 1.036 12.15 0 22-9.85 22-22 0-6.622-2.94-12.546-7.57-16.58z" fill="#C7EDE6"/>
<path d="m182.25 109h-12.25c-4.97 0-9-4.03-9-9 0-4.666 3.564-8.458 8.11-8.91-0.044-0.362-0.11-0.716-0.11-1.09 0-4.97 4.03-9 9-9 2.876 0 5.406 1.372 7.054 3.472 0.28-5.272 4.604-9.472 9.946-9.472 5.522 0 10 4.478 10 10 0 0.892-0.154 1.74-0.374 2.564 1.284-1.554 3.2-2.564 5.374-2.564 3.562 0 6.468 2.67 6.91 6.11 0.362-0.044 0.716-0.11 1.09-0.11 4.97 0 9 4.03 9 9s-4.03 9-9 9h-19-10.75v1h-6v-1z" fill="#FDFCEF"/>
<path d="m195 74c6.066 0 11 4.934 11 11v0.094c1.204-0.71 2.58-1.094 4-1.094 3.662 0 6.822 2.522 7.716 6.01 0.094-6e-3 0.188-0.01 0.284-0.01 5.514 0 10 4.486 10 10s-4.486 10-10 10h-29.75c-0.552 0-1-0.448-1-1s0.448-1 1-1h29.75c4.412 0 8-3.588 8-8s-3.588-8-8-8c-0.234 0-0.46 0.034-0.686 0.064l-0.282 0.038c-0.042 6e-3 -0.082 8e-3 -0.124 8e-3 -0.492 0-0.924-0.37-0.99-0.874-0.382-2.986-2.926-5.236-5.918-5.236-1.77 0-3.446 0.802-4.602 2.2-0.196 0.236-0.482 0.364-0.772 0.364-0.156 0-0.312-0.036-0.456-0.112-0.418-0.214-0.628-0.692-0.508-1.146 0.23-0.87 0.338-1.602 0.338-2.306 0-4.962-4.038-9-9-9-4.762 0-8.694 3.744-8.948 8.526-0.022 0.416-0.3 0.774-0.698 0.9-0.1 0.032-0.202 0.048-0.304 0.048-0.3 0-0.592-0.138-0.784-0.384-1.542-1.964-3.824-3.09-6.266-3.09-4.412 0-8 3.588-8 8 0 0.234 0.034 0.46 0.064 0.686l0.038 0.282c0.032 0.268-0.044 0.536-0.212 0.746s-0.414 0.344-0.68 0.37c-4.112 0.41-7.21 3.814-7.21 7.916 0 4.412 3.588 8 8 8h12.25c0.552 0 1 0.448 1 1s-0.448 1-1 1h-12.25c-5.514 0-10-4.486-10-10 0-4.794 3.378-8.826 8.006-9.754-4e-3 -0.082-6e-3 -0.164-6e-3 -0.246 0-5.514 4.486-10 10-10 2.352 0 4.586 0.832 6.366 2.328 1.196-4.808 5.524-8.328 10.634-8.328z" fill="#472B29"/>
<path d="m198 88c2.806 0 5.218 1.998 5.826 4.682 0.734-0.444 1.572-0.682 2.424-0.682 2.404 0 4.396 1.794 4.706 4.136 0.406-0.092 0.792-0.136 1.17-0.136 3.058 0 5.622 2.4 5.836 5.464 0.018 0.276-0.19 0.516-0.464 0.536h-0.036c-0.26 0-0.48-0.202-0.498-0.464-0.178-2.542-2.302-4.536-4.838-4.536-0.458 0-0.94 0.084-1.476 0.254-0.044 0.014-0.09 0.02-0.134 0.02-0.11 0-0.22-0.04-0.312-0.108-0.128-0.092-0.204-0.256-0.204-0.416 0-2.068-1.682-3.75-3.75-3.75-0.894 0-1.77 0.336-2.462 0.946-0.094 0.082-0.212 0.126-0.33 0.126-0.064 0-0.126-0.012-0.186-0.038-0.176-0.07-0.296-0.234-0.31-0.424-0.208-2.586-2.386-4.61-4.962-4.61-0.416 0-0.85 0.068-1.364 0.214-0.046 0.014-0.094 0.02-0.14 0.02-0.218 0-0.414-0.146-0.478-0.364-0.076-0.266 0.078-0.542 0.344-0.618 0.604-0.172 1.126-0.252 1.638-0.252zm-27.766 3c2.652 0 5.016 1.794 5.748 4.364 0.076 0.266-0.078 0.542-0.344 0.618-0.048 0.012-0.094 0.018-0.138 0.018-0.218 0-0.418-0.144-0.48-0.364-0.61-2.14-2.578-3.636-4.786-3.636-0.234 0-0.46 0.028-0.684 0.058-0.024 4e-3 -0.046 6e-3 -0.07 6e-3 -0.242 0-0.458-0.184-0.492-0.434-0.038-0.274 0.154-0.526 0.428-0.562 0.268-0.036 0.54-0.068 0.818-0.068z" fill="#472B29"/>
<path d="m210.81 158h-19.81c-0.552 0-1-0.448-1-1s0.448-1 1-1h19.81c0.552 0 1 0.448 1 1s-0.446 1-1 1zm6.19 0h-2c-0.552 0-1-0.448-1-1s0.448-1 1-1h2c0.552 0 1 0.448 1 1s-0.446 1-1 1zm9.982 4h-17.982c-0.552 0-1-0.448-1-1s0.448-1 1-1h17.982c0.552 0 1 0.448 1 1s-0.448 1-1 1zm-21.982 0h-2c-0.552 0-1-0.448-1-1s0.448-1 1-1h2c0.552 0 1 0.448 1 1s-0.446 1-1 1zm-6 0h-4c-0.552 0-1-0.448-1-1s0.448-1 1-1h4c0.552 0 1 0.448 1 1s-0.446 1-1 1zm12 4h-4c-0.552 0-1-0.448-1-1s0.448-1 1-1h4c0.552 0 1 0.448 1 1s-0.448 1-1 1zm6-18h-2c-0.552 0-1 0.448-1 1s0.448 1 1 1h2c0.552 0 1-0.448 1-1s-0.448-1-1-1zm0 4h-10c-0.552 0-1 0.448-1 1s0.448 1 1 1h10c0.552 0 1-0.448 1-1s-0.448-1-1-1zm10 4h-6c-0.552 0-1 0.448-1 1s0.448 1 1 1h6c0.552 0 1-0.448 1-1s-0.448-1-1-1zm-158-28h-20c-0.552 0-1-0.448-1-1s0.448-1 1-1h20c0.552 0 1 0.448 1 1s-0.448 1-1 1zm8 0h-4c-0.552 0-1-0.448-1-1s0.448-1 1-1h4c0.552 0 1 0.448 1 1s-0.448 1-1 1zm10 4h-20c-0.552 0-1-0.448-1-1s0.448-1 1-1h20c0.552 0 1 0.448 1 1s-0.446 1-1 1zm-24 0h-2c-0.552 0-1-0.448-1-1s0.448-1 1-1h2c0.552 0 1 0.448 1 1s-0.448 1-1 1zm-6.25 0h-3.75c-0.552 0-1-0.448-1-1s0.448-1 1-1h3.75c0.552 0 1 0.448 1 1s-0.448 1-1 1zm18.25-8h-10c-0.552 0-1-0.448-1-1s0.448-1 1-1h10c0.552 0 1 0.448 1 1s-0.446 1-1 1zm-6 12h-4c-0.552 0-1-0.448-1-1s0.448-1 1-1h4c0.552 0 1 0.448 1 1s-0.448 1-1 1z" fill="#fff"/>
<path d="m194.93 94.452-34.604-5.16c-0.54-0.09-1.096-0.038-1.612 0.138-8.528 2.912-16.89 3.22-25.028 0.064-0.554-0.214-1.16-0.29-1.748-0.192l-34.854 5.154c-1.72 0.288-2.898 1.84-2.666 3.516l3.154 22.93c0.238 1.734 1.89 2.946 3.676 2.7l8.472-0.09c1.956-0.27 3.706 1.2 3.706 3.114v48.894c0 1.738 1.454 3.146 3.246 3.146h58.838c1.792 0 3.246-1.408 3.246-3.146v-48.892c0-1.914 1.75-3.386 3.706-3.114l8.302 0.09c1.786 0.248 3.438-0.966 3.676-2.7l3.154-22.934c0.228-1.676-0.946-3.228-2.664-3.518z" fill="#F37E98"/>
<path d="m175.5 180.07h-58.838c-2.562 0-4.646-2.04-4.646-4.546v-48.894c0-0.492-0.21-0.95-0.594-1.284-0.412-0.36-0.964-0.516-1.52-0.446l-8.648 0.104c-1.076 0.164-2.318-0.162-3.318-0.92-0.972-0.734-1.598-1.796-1.76-2.988l-3.154-22.928c-0.334-2.442 1.344-4.676 3.824-5.09l34.878-5.156c0.796-0.136 1.654-0.042 2.458 0.272 7.51 2.914 15.384 2.886 24.07-0.084 0.746-0.254 1.54-0.318 2.296-0.196l34.58 5.156c8e-3 2e-3 0.018 2e-3 0.026 4e-3 2.476 0.416 4.152 2.652 3.816 5.088l-3.154 22.936c-0.164 1.192-0.79 2.254-1.76 2.988-1 0.76-2.238 1.08-3.496 0.906l-8.124-0.076c-0.724-0.1-1.28 0.072-1.694 0.432-0.384 0.334-0.594 0.792-0.594 1.284v48.892c-2e-3 2.508-2.086 4.546-4.648 4.546zm-65.254-57.994c1.038 0 2.148 0.406 3.016 1.16 0.988 0.862 1.556 2.1 1.556 3.394v48.894c0 0.962 0.828 1.746 1.846 1.746h58.836c1.018 0 1.846-0.784 1.846-1.746v-48.894c0-1.294 0.568-2.534 1.556-3.394 1.022-0.89 2.382-1.292 3.742-1.108l8.126 0.076c0.69 0.086 1.194-0.042 1.596-0.352 0.376-0.284 0.616-0.688 0.678-1.138l3.156-22.934c0.126-0.922-0.53-1.774-1.496-1.942l-34.588-5.158c-0.328-0.056-0.646-0.026-0.956 0.08-9.21 3.144-17.952 3.158-25.986 0.042-0.334-0.128-0.684-0.172-1.012-0.116l-34.878 5.156c-0.952 0.162-1.616 1.018-1.488 1.946l3.154 22.928c0.062 0.452 0.302 0.856 0.678 1.138 0.402 0.306 0.898 0.438 1.42 0.366l8.648-0.104c0.18-0.026 0.364-0.04 0.55-0.04z" fill="#472B29"/>
<path d="m132.67 89.416v2.184c0 7.632 5.97 13.818 13.334 13.818s13.334-6.186 13.334-13.818v-2.182c-6.152 3.11-21.152 3.11-26.668-2e-3z" fill="#F15B6C"/>
<path d="m146 106.82c-8.124 0-14.734-6.826-14.734-15.216v-2.182c0-0.498 0.264-0.958 0.694-1.208s0.958-0.256 1.394-0.01c5.14 2.894 19.588 2.876 25.346-0.032 0.434-0.216 0.95-0.196 1.366 0.056 0.414 0.256 0.666 0.708 0.666 1.194v2.182c2e-3 8.39-6.608 15.216-14.732 15.216zm-11.932-15.26v0.044c0 6.846 5.352 12.416 11.932 12.416s11.932-5.57 11.932-12.416v-0.096c-6.512 2.194-17.668 2.208-23.864 0.052z" fill="#472B29"/>
<path d="m178.65 124.7h-0.026c-0.276-0.016-0.488-0.25-0.472-0.528l0.93-17.546c0.014-0.274 0.25-0.484 0.526-0.472 0.276 0.016 0.488 0.25 0.472 0.528l-0.93 17.546c-0.016 0.264-0.236 0.472-0.5 0.472z" fill="#472B29"/>
<path d="m179.78 103.25h-0.026c-0.276-0.016-0.488-0.25-0.472-0.528l0.302-5.7c0.014-0.274 0.258-0.486 0.526-0.472 0.276 0.016 0.488 0.25 0.472 0.528l-0.302 5.7c-0.014 0.264-0.236 0.472-0.5 0.472z" fill="#472B29"/>
<path d="m161.13 173.38h-9.75c-0.276 0-0.5-0.224-0.5-0.5s0.224-0.5 0.5-0.5h9.75c0.276 0 0.5 0.224 0.5 0.5s-0.224 0.5-0.5 0.5z" fill="#472B29"/>
<path d="m147.13 173.38h-34.126c-0.276 0-0.5-0.224-0.5-0.5s0.224-0.5 0.5-0.5h34.126c0.276 0 0.5 0.224 0.5 0.5s-0.224 0.5-0.5 0.5z" fill="#472B29"/>
<path d="m173.29 173.38h-4.416c-0.276 0-0.5-0.224-0.5-0.5s0.224-0.5 0.5-0.5h4.416c0.276 0 0.5 0.224 0.5 0.5s-0.224 0.5-0.5 0.5z" fill="#472B29"/>
<path d="m166.46 173.38h-3.166c-0.276 0-0.5-0.224-0.5-0.5s0.224-0.5 0.5-0.5h3.166c0.276 0 0.5 0.224 0.5 0.5s-0.224 0.5-0.5 0.5z" fill="#472B29"/>
<path d="m113.74 124.94c-0.264 0-0.484-0.206-0.5-0.472l-0.542-9.734c-0.016-0.276 0.196-0.512 0.47-0.528 0.326 4e-3 0.512 0.198 0.528 0.472l0.542 9.734c0.016 0.276-0.196 0.512-0.47 0.528h-0.028z" fill="#472B29"/>
<path d="m112.59 105.55c-0.264 0-0.484-0.206-0.5-0.472l-0.51-9.136c-0.016-0.276 0.196-0.512 0.47-0.528 0.314 0.026 0.512 0.198 0.528 0.472l0.51 9.136c0.016 0.276-0.196 0.512-0.47 0.528h-0.028z" fill="#472B29"/>
<path d="m112.99 112.04c-0.264 0-0.484-0.206-0.5-0.472l-0.176-3.162c-0.016-0.276 0.196-0.512 0.47-0.528 0.312 0.034 0.512 0.198 0.528 0.472l0.176 3.162c0.016 0.276-0.196 0.512-0.47 0.528h-0.028z" fill="#472B29"/>
<path d="m125 163h7c3.866 0 7-3.134 7-7 0-3.562-2.67-6.468-6.11-6.91 0.056-0.358 0.11-0.716 0.11-1.09 0-3.866-3.134-7-7-7-2.064 0-3.9 0.91-5.18 2.33-0.768-3.616-3.974-6.33-7.82-6.33-4.418 0-8 3.582-8 8 0 0.382 0.06 0.748 0.112 1.116-0.856-0.688-1.928-1.116-3.112-1.116-2.456 0-4.49 1.774-4.91 4.11-0.358-0.056-0.716-0.11-1.09-0.11-3.866 0-7 3.134-7 7s3.134 7 7 7h15v1h14v-1z" fill="#FDFCEF"/>
<path d="m128.5 154c-0.276 0-0.5-0.224-0.5-0.5 0-2.446 1.99-4.436 4.436-4.436 0.068 0.018 1.474-2e-3 2.488 0.272 0.266 0.072 0.424 0.346 0.352 0.612-0.072 0.268-0.346 0.426-0.612 0.352-0.888-0.24-2.2-0.24-2.226-0.236-1.896 0-3.438 1.542-3.438 3.436 0 0.276-0.224 0.5-0.5 0.5zm-13.5 8c-0.265 0-0.52 0.105-0.707 0.293-0.188 0.187-0.293 0.442-0.293 0.707s0.105 0.52 0.293 0.707c0.187 0.188 0.442 0.293 0.707 0.293s0.52-0.105 0.707-0.293c0.188-0.187 0.293-0.442 0.293-0.707s-0.105-0.52-0.293-0.707c-0.187-0.188-0.442-0.293-0.707-0.293z" fill="#472B29"/>
<path d="m132 164h-7c-0.552 0-1-0.448-1-1s0.448-1 1-1h7c3.308 0 6-2.692 6-6 0-2.992-2.25-5.536-5.236-5.918-0.268-0.036-0.51-0.176-0.672-0.392s-0.23-0.488-0.188-0.754c0.046-0.308 0.096-0.616 0.096-0.936 0-3.308-2.692-6-6-6-1.7 0-3.276 0.71-4.438 2-0.25 0.278-0.642 0.396-1 0.296-0.364-0.098-0.642-0.39-0.72-0.758-0.682-3.208-3.56-5.538-6.842-5.538-3.86 0-7 3.14-7 7 0 0.286 0.042 0.56 0.082 0.836 0.058 0.406-0.126 0.876-0.484 1.08s-0.792 0.236-1.112-0.02c-0.73-0.586-1.588-0.896-2.486-0.896-1.932 0-3.584 1.382-3.926 3.288-0.096 0.534-0.592 0.892-1.138 0.81-0.308-0.048-0.616-0.098-0.936-0.098-3.308 0-6 2.692-6 6s2.692 6 6 6h15c0.552 0 1 0.448 1 1s-0.448 1-1 1h-15c-4.412 0-8-3.588-8-8s3.588-8 8-8c0.118 0 0.232 4e-3 0.348 0.012 0.828-2.372 3.074-4.012 5.652-4.012 0.698 0 1.378 0.122 2.022 0.36 0.33-4.666 4.23-8.36 8.978-8.36 3.662 0 6.932 2.254 8.306 5.548 1.36-0.996 3.004-1.548 4.694-1.548 4.412 0 8 3.588 8 8 0 0.096-2e-3 0.19-8e-3 0.284 3.486 0.896 6.008 4.054 6.008 7.716 0 4.412-3.588 8-8 8z" fill="#472B29"/>
<path d="m121 162h-2c-0.552 0-1 0.448-1 1s0.448 1 1 1h2c0.552 0 1-0.448 1-1s-0.448-1-1-1z" fill="#472B29"/>
</svg>
