<svg xmlns="http://www.w3.org/2000/svg" width="1600" height="1200"><defs><clipPath id="a"><path d="M0 0h800v600H0z"/></clipPath></defs><g clip-path="url(#a)" transform="matrix(1.96 0 0 1.96 32 -80)"><path d="M672.876 476.948l12.227-3.821c.983-.655 2.074-1.092 3.057-1.965l-18.996 6.114c1.31-.11 2.511-.11 3.712-.328zm-8.625 0l27.62-8.952c.546-.437.873-.983 1.419-1.419l-30.895 9.825c.655.327 1.31.436 1.856.546zm-4.803-1.201l36.135-11.572c.437-.327.546-.764.983-1.201l-38.101 12.118c.328.436.655.436.983.655zm-2.839-1.856l41.485-13.319c.218-.327.437-.764.655-1.092l-42.795 13.756c.109.327.437.546.655.655zm-2.074-2.075l45.197-14.411c.218-.328.218-.655.437-1.092L653.99 471.16c.327.22.436.547.545.656zm-1.31-2.183l48.035-15.284c0-.327.218-.655.218-1.092l-48.69 15.611c.11.219.219.547.437.765zm-1.201-2.402l49.891-16.048c0-.328.109-.655.218-1.092l-50.437 16.048c.11.546.219.765.328 1.092zm-.873-2.401l51.419-16.485c0-.327.109-.655.109-.983l-51.856 16.703c.109.11.219.437.328.765zm-.437-2.948c.109.109-.109.218 0 .327l52.293-16.703c0-.327.109-.655.109-.983l-52.075 16.594c-.109.219-.218.437-.327.765zm2.729-3.712c-.109.109-.218.328-.437.328l50.109-16.048c0-.328-.109-.546 0-.873l-48.799 15.721c-.436.326-.654.654-.873.872zm2.402-3.166l46.834-14.956c0-.328-.109-.546-.218-.873l-46.179 14.847c0 .327-.219.546-.437.982zm1.529-3.275l45.088-14.411c-.109-.327-.109-.546-.218-.873l-44.433 14.301c-.328.437-.328.765-.437.983zm.764-2.948l43.668-13.865c-.109-.328-.218-.437-.218-.873l-43.122 13.865c-.219.328-.328.546-.328.873zm.218-2.838l42.467-13.537c-.109-.327-.218-.437-.327-.764l-42.249 13.428c.109.327.109.655.109.873zm-.218-2.729l41.267-13.21c-.109-.327-.218-.437-.328-.764l-41.048 13.1c.109.328.109.765.109.874zm-.546-2.511l40.284-12.991c-.109-.327-.437-.546-.546-.655l-40.175 12.882c.219.327.328.545.437.764zm37.773-15.721l-39.192 12.445c.109.327.218.437.328.764l39.52-12.664c-.001-.108-.328-.326-.656-.545zm-2.293-1.965l-38.21 12.227c.109.328.437.546.546.655l38.537-12.336c-.327 0-.654-.327-.873-.546zm-3.056-1.747l-36.463 11.572c.109.328.218.437.328.764l37.227-12.009c-.437.001-.656-.217-1.092-.327zm-3.821-1.419c-.109.109-.218-.109-.327 0l-32.205 10.262c-.109.218-.109.655-.109.983l34.061-10.917c-.547 0-.984-.219-1.42-.328zm-8.188-.327l-20.852 6.659c-.655.546-1.419.983-2.074 1.528l26.419-8.406c-1.091.11-2.401.11-3.493.219z" fill="#e6e6e6"/><linearGradient id="b" gradientUnits="userSpaceOnUse" x1="5958.472" y1="-2529.595" x2="7354.134" y2="-2529.595" gradientTransform="matrix(.1 0 0 -.1 0 18)"><stop offset="0" stop-color="#b9d3fd"/><stop offset="1" stop-color="#89b3f4"/></linearGradient><path d="M734.666 291.794c1.528 4.585-.218 9.498-2.511 13.756-6.223 11.681-16.266 21.288-28.275 26.856-6.659 3.166-13.865 5.022-20.742 7.86-19.978 8.297-36.245 24.891-43.996 45.088 2.293-13.974-5.022-27.839-13.974-38.865-8.843-11.026-19.542-20.961-25.873-33.625-5.459-10.917-5.568-27.074 5.459-32.315 8.079-3.821 18.232.437 26.529-3.057 2.948-1.31 5.568-3.93 5.458-7.096-.437-8.079-16.376-7.533-16.812-15.611-.437-9.28 24.018-6.55 20.852-15.393-1.31-3.712-6.55-4.804-8.297-8.297-1.856-3.493-1.747-8.406 1.419-10.917 4.039-3.275 10.153-.655 15.284-1.856 5.786-1.31 9.498-7.205 10.699-13.1 1.201-5.895.546-11.9 1.419-17.795 2.074-14.52 13.974-27.074 28.275-30.131 14.301-3.057 30.24 3.712 37.991 16.157 3.166 5.131 4.913 12.009 1.528 16.921-2.948 4.148-9.279 6.878-8.734 11.9.655 6.878 13.428 7.533 13.646 14.411.218 8.079-16.376 8.079-15.939 16.157.218 3.603 4.039 5.677 6.332 8.515 4.367 5.24 2.62 14.301-3.384 17.576-2.402 1.31-5.24 1.856-7.096 3.712-4.804 4.694-.109 12.991 5.568 16.485 5.677 3.494 13.1 6.223 15.174 12.664z" fill="url(#b)"/><linearGradient id="c" gradientUnits="userSpaceOnUse" x1="6414.08" y1="-2855.149" x2="7869.931" y2="-2855.149" gradientTransform="matrix(.1 0 0 -.1 0 18)"><stop offset="0" stop-color="#deeafe"/><stop offset="1" stop-color="#e9f1fe"/></linearGradient><path d="M692.745 292.34c3.384-1.856 6.987-3.603 9.716-6.441 5.568-6.114 5.24-15.284 5.677-23.581.437-8.297 3.384-18.013 11.354-20.197 6.659-1.856 15.066 2.183 19.978-2.62 1.856-1.747 2.62-4.367 3.93-6.55 5.677-9.498 20.633-8.734 28.93-1.419 8.188 7.314 11.354 18.668 14.083 29.367.983 3.93 1.092 9.389-2.729 10.48-3.712.983-7.424-3.603-10.917-2.183-2.838 1.092-3.057 5.131-1.965 8.079.983 2.838 2.729 5.786 2.074 8.843-1.31 5.677-9.279 6.004-14.956 4.476-5.677-1.528-12.991-3.057-16.266 1.856 3.603 11.463 6.659 25.437-1.419 34.498-9.279 10.371-26.419 9.28-40.284 10.59-25.764 2.402-43.996 22.052-58.516 43.559-.874-36.028 19.76-71.617 51.31-88.757z" fill="url(#c)"/><path d="M660.43 364.72h-.218c-.328-.109-.437-.437-.328-.655 13.101-40.066 33.952-67.904 72.053-95.961 7.096-5.24 28.494-14.083 37.773-14.847.218 0 .546.218.546.546s-.218.546-.546.546c-8.843.764-30.349 9.607-37.118 14.629-37.991 27.948-58.734 55.568-71.725 95.415 0 .109-.218.327-.437.327zM680.627 247.252l-4.367-12.009a11.661 11.661 0 00-4.694.655l4.694 12.882c.218.764-.109 1.528-.873 1.747-.764.218-1.528-.109-1.747-.873l-4.694-12.664c-1.419.873-2.62 2.074-3.603 3.384l3.93 10.699c.218.764-.109 1.528-.873 1.747-.764.218-1.528-.109-1.747-.873l-3.057-8.406c-1.747 4.367-1.856 9.935.109 15.393 0 .109.109.218.109.328-.983.546-2.074 1.201-2.948 1.965-2.729 1.965-6.223 5.349-7.424 10.153l1.31.328c1.092-4.367 4.367-7.533 6.878-9.28a23.27 23.27 0 012.729-1.747c2.074 4.585 5.458 8.297 9.17 10.262l-2.948-7.969c-.218-.764.109-1.528.873-1.747s1.528.109 1.747.873l3.821 10.262c1.638.437 3.275.546 4.913.218l-4.367-12.009c-.218-.764.109-1.528.873-1.747.764-.218 1.528.109 1.747.873l4.476 12.118c1.419-.655 2.729-1.638 3.821-2.729l-4.039-10.917c-.218-.764.109-1.528.873-1.747.764-.218 1.528.109 1.747.873l3.493 9.389a40.637 40.637 0 002.948-5.24l-2.183-5.895c-.218-.764.109-1.528.873-1.747.764-.218 1.528.109 1.747.873l1.201 3.166c2.183-5.24 3.603-10.371 5.459-12.009-3.057-.655-7.314-3.493-12.009-6.114l1.528 4.039c.218.764-.109 1.528-.873 1.747-.764.218-1.528-.109-1.747-.873l-2.511-6.878a28.333 28.333 0 00-5.568-1.965l3.821 10.59c.218.764-.109 1.528-.873 1.747-.653.219-1.418-.109-1.745-.873z" fill="#fff"/><path fill="#d6d7d8" d="M342.853 380.986h121.835v135.481H342.853z"/><path fill="#428dfc" d="M267.415 512.101h272.709v10.48H267.415z"/><linearGradient id="d" gradientUnits="userSpaceOnUse" x1="1361.922" y1="-2771.782" x2="6713.474" y2="-2771.782" gradientTransform="matrix(.1 0 0 -.1 0 18)"><stop offset="0" stop-color="#eee"/><stop offset="1" stop-color="#d6d7d8"/></linearGradient><path fill="url(#d)" d="M136.192 121.924h535.155v346.508H136.192z"/><path fill="#fff" d="M145.581 130.549h516.378v285.372H145.581z"/><path fill="#a1c3fc" d="M384.58 449.734l-7.025-7.024 7.024-7.025 7.025 7.025z"/><path fill="#fff" d="M403.742 449.719l-7.024-7.024 7.024-7.025 7.024 7.025z"/><path fill="#1d72d8" d="M422.904 449.749l-7.024-7.025 7.024-7.024 7.025 7.024z"/><path d="M660.539 81.422v.655c0 9.061 7.314 16.376 16.376 16.376s16.376-7.314 16.376-16.376v-.655h-32.752z" fill="#d3e3fe"/><path d="M719.164 41.574v1.092c0 14.956 12.118 27.074 27.074 27.074s27.074-12.118 27.074-27.074v-1.092h-54.148z" fill="#a1c3fc"/><path d="M32.698 13.19v1.856c0 25.218 20.524 45.743 45.743 45.743s45.743-20.524 45.743-45.743V13.19H32.698z" fill="#f4f4f4"/><path d="M80.624 13.19v1.31c0 18.341 14.847 33.188 33.188 33.188S147 32.841 147 14.5v-1.31H80.624z" fill="#e7effe"/><g><linearGradient id="e" gradientUnits="userSpaceOnUse" x1="4547.144" y1="-2848.55" x2="5952.891" y2="-2848.55" gradientTransform="rotate(164.579 276.988 36.237) scale(.1)"><stop offset="0" stop-color="#b9d3fd"/><stop offset="1" stop-color="#89b3f4"/></linearGradient><path d="M61.41 450.31c-.218 4.803 2.729 9.17 6.114 12.664 9.17 9.716 21.507 16.376 34.607 18.559 7.314 1.201 14.847 1.201 22.271 2.074 21.616 2.729 41.812 14.52 54.804 31.987-6.004-12.991-2.511-28.384 3.166-41.485 5.677-13.1 13.428-25.546 16.157-39.52 2.402-12.009-1.856-27.839-13.974-29.913-8.952-1.528-17.686 5.349-26.638 4.039-3.166-.437-6.55-2.293-7.205-5.459-1.747-7.969 13.974-11.681 12.118-19.651-2.074-9.17-25.109 0-24.345-9.28.328-3.93 5.022-6.332 5.895-10.262s-.546-8.624-4.258-10.153c-4.804-2.074-10.044 2.074-15.284 2.293-6.004.328-11.135-4.476-13.865-9.825s-3.712-11.463-6.114-16.921c-5.895-13.537-20.742-22.598-35.481-21.725-14.738.873-28.384 11.681-32.642 25.873-1.747 5.786-1.638 12.991 3.057 16.921 3.93 3.275 10.808 4.148 11.681 9.17 1.201 6.878-11.026 10.917-9.389 17.686 1.856 7.969 18.122 3.493 19.76 11.463.764 3.603-2.402 6.659-3.821 9.935-2.838 6.223 1.31 14.52 7.969 16.157 2.62.655 5.568.327 7.969 1.638 5.895 3.275 3.603 12.555-.983 17.467-4.8 5.023-11.132 9.499-11.569 16.268z" fill="url(#e)"/><linearGradient id="f" gradientUnits="userSpaceOnUse" x1="5005.235" y1="-3177.05" x2="6471.752" y2="-3177.05" gradientTransform="rotate(164.579 276.988 36.237) scale(.1)"><stop offset="0" stop-color="#deeafe"/><stop offset="1" stop-color="#e9f1fe"/></linearGradient><path d="M102.458 439.72c-3.821-.873-7.751-1.638-11.135-3.712-7.096-4.476-9.17-13.537-11.79-21.397-2.62-7.86-8.079-16.594-16.376-16.594-6.987 0-14.083 6.223-20.087 2.838-2.293-1.31-3.712-3.603-5.568-5.349-7.969-7.642-22.38-2.948-28.384 6.332s-6.004 21.179-5.895 32.315c.109 4.039 1.419 9.389 5.459 9.389 3.821 0 6.223-5.459 10.044-5.022 3.057.327 4.367 4.258 4.148 7.314-.218 3.057-1.092 6.332.328 9.061 2.729 5.24 10.699 3.384 15.721.327s11.79-6.441 16.266-2.511c-.437 12.118.328 26.528 10.59 33.079 11.79 7.533 28.166 1.965 41.922-.437 25.655-4.585 48.69 9.716 68.45 26.747-9.063-35.152-38.54-64.192-73.693-72.38z" fill="url(#f)"/><path d="M178.878 517.232c-8.734-22.817-15.721-46.288-21.07-70.088" fill="none" stroke="#428dfc" stroke-width="2" stroke-linecap="round" stroke-miterlimit="10"/><ellipse transform="rotate(-102.915 157.599 444.733)" cx="157.599" cy="444.732" rx="4.694" ry="12.445" fill="#23286b"/><path d="M157.153 444.305a514.83 514.83 0 01-7.205-40.83" fill="none" stroke="#428dfc" stroke-width="2" stroke-linecap="round" stroke-miterlimit="10"/><ellipse transform="rotate(-108.506 149.504 400.312)" cx="149.504" cy="400.314" rx="5.568" ry="14.957" fill="#23286b"/><path d="M149.402 399.873a598.823 598.823 0 01-3.275-34.061" fill="none" stroke="#428dfc" stroke-width="2" stroke-linecap="round" stroke-miterlimit="10"/><ellipse transform="scale(-1) rotate(89.393 365.742 -148.465)" cx="146.883" cy="361.865" rx="5.567" ry="14.956" fill="#23286b"/><path d="M145.908 361.008c-.437-8.624-.655-17.358-.764-26.092" fill="none" stroke="#428dfc" stroke-width="2" stroke-linecap="round" stroke-miterlimit="10"/><ellipse transform="scale(-1) rotate(89.393 333.965 -146.81)" cx="145.246" cy="330.426" rx="7.532" ry="20.087" fill="#23286b"/><path d="M145.144 329.021c.109-5.786.218-11.572.437-17.358" fill="none" stroke="#428dfc" stroke-width="2" stroke-linecap="round" stroke-miterlimit="10"/></g><path d="M132.808 484.917l4.367-12.009a11.661 11.661 0 014.694.655l-4.694 12.882c-.218.764.109 1.528.873 1.747s1.528-.109 1.747-.873l4.694-12.664c1.419.873 2.62 2.074 3.603 3.384l-3.93 10.699c-.218.764.109 1.528.873 1.747s1.528-.109 1.747-.873l3.057-8.406c1.747 4.367 1.856 9.935-.109 15.393 0 .109-.109.218-.109.328.983.546 2.074 1.201 2.948 1.965 2.729 1.965 6.223 5.349 7.424 10.153l-1.31.328c-1.092-4.367-4.367-7.533-6.878-9.28a23.27 23.27 0 00-2.729-1.747c-2.074 4.585-5.459 8.297-9.17 10.262l2.948-7.969c.218-.764-.109-1.528-.873-1.747-.764-.218-1.528.109-1.747.873l-3.821 10.262c-1.638.437-3.275.546-4.913.218l4.367-12.009c.218-.764-.109-1.528-.873-1.747s-1.528.109-1.747.873l-4.476 12.118c-1.419-.655-2.729-1.638-3.821-2.729l4.039-10.917c.218-.764-.109-1.528-.873-1.747-.764-.218-1.528.109-1.747.873l-3.493 9.389a40.637 40.637 0 01-2.948-5.24l2.183-5.895c.218-.764-.109-1.528-.873-1.747s-1.528.109-1.747.873l-1.201 3.166c-2.183-5.24-3.603-10.371-5.459-12.009 3.057-.655 7.314-3.493 12.009-6.114l-1.528 4.039c-.218.764.109 1.528.873 1.747s1.528-.109 1.747-.873l2.511-6.878a28.333 28.333 0 015.568-1.965l-3.821 10.59c-.218.764.109 1.528.873 1.747.653.219 1.417-.109 1.745-.873z" fill="#fff"/><path d="M109.555 136.007l-8.188-.983c-.764.109-1.528.109-2.293.328l12.773 1.419c-.873-.218-1.528-.546-2.292-.764zm5.021 2.293l-18.559-2.074c-.437.109-.764.328-1.201.437l20.742 2.402c-.327-.329-.654-.547-.982-.765zm2.511 1.965l-24.236-2.729c-.328.109-.546.328-.873.437l25.546 2.948c-.109-.329-.328-.438-.437-.656zm1.201 1.856l-27.839-3.166c-.218.109-.437.328-.655.437l28.712 3.275a.828.828 0 00-.218-.546zm.655 1.746l-30.349-3.493c-.218.109-.328.328-.546.546l31.005 3.493c-.11-.218-.11-.436-.11-.546zm.219 1.638l-32.205-3.712c-.109.218-.328.328-.437.546l32.642 3.712v-.546zm0 1.747l-33.515-3.821c-.109.218-.218.328-.437.546l33.843 3.93c.109-.328.109-.437.109-.655zm-.11 1.637l-34.498-3.93c-.109.218-.218.328-.328.546l34.825 3.93.001-.546zm-.545 1.856c0-.109.109-.109.109-.218l-35.044-4.039c-.109.218-.218.328-.328.546l34.935 4.039.328-.328zm-2.511 1.419c.109 0 .218-.109.328-.109l-33.625-3.821c-.109.218-.109.328-.218.546l32.751 3.712a5.26 5.26 0 00.764-.328zm-2.293 1.201l-31.441-3.603c-.109.218-.109.328-.109.546l31.005 3.493c.108-.108.327-.217.545-.436zm-1.747 1.529l-30.24-3.493c0 .218-.109.328-.109.546l29.804 3.384c.327-.11.436-.328.545-.437zm-1.201 1.528l-29.258-3.384c0 .218 0 .328-.109.546l28.93 3.275a.851.851 0 00.437-.437zm-.873 1.638l-28.494-3.275v.546l28.275 3.275a.839.839 0 01.219-.546zm-.655 1.637l-27.729-3.166v.546l27.511 3.166c.109-.218.218-.437.218-.546zm-.328 1.638l-27.074-3.057c0 .218.109.437.109.546l26.965 3.057v-.546zm-26.31-.764l26.31 3.057v-.546l-26.529-3.057c.001.109.11.327.219.546zm.874 1.746l25.655 2.948c0-.218-.109-.437-.109-.546l-25.873-2.948c.108.11.218.328.327.546zm1.31 1.856l24.454 2.838v-.546l-25-2.838c.218.11.327.328.546.546zm1.856 1.856c.109 0 .109.109.218.109l21.616 2.511c.109-.109.218-.328.328-.546l-22.817-2.62c.218.109.436.328.655.546zm4.694 2.293l13.974 1.638 1.638-.328-17.686-2.074c.655.218 1.419.545 2.074.764zM687.068 497.253l12.773.546c1.201-.218 2.402-.328 3.493-.764l-19.978-.655c1.419.218 2.511.655 3.712.873zm-8.079-2.947l29.039.983c.655-.218 1.092-.546 1.856-.873l-32.424-1.201c.547.545.983.872 1.529 1.091zm-4.039-2.73l37.882 1.31c.546-.218.764-.546 1.31-.764l-39.956-1.528c.218.546.546.655.764.982zm-2.183-2.729l43.559 1.528c.327-.218.655-.546.983-.764l-44.869-1.638a1.31 1.31 0 00.327.874zm-1.201-2.62l47.489 1.747c.328-.218.437-.546.764-.873l-48.472-1.747c.219.327.219.655.219.873zm-.546-2.511l50.328 1.856c.109-.328.437-.546.655-.873l-51.092-1.856c.109.218.109.546.109.873zm-.218-2.729l52.402 1.965c.109-.328.327-.546.655-.873l-52.948-2.074c-.109.545-.109.654-.109.982zm0-2.511l53.93 1.965c.109-.328.328-.546.437-.873l-54.476-1.965c.109.218.109.545.109.873zm.655-2.948c0 .218-.109.218-.109.328l54.804 2.074c.109-.327.328-.546.437-.873l-54.585-2.074c-.22.218-.438.327-.547.545zm3.711-2.511c-.218 0-.328.218-.546.218l52.62 1.856c.109-.327.109-.546.328-.873l-51.201-1.856c-.546.219-.873.437-1.201.655zm3.385-2.183l49.127 1.856c.109-.328.109-.546.109-.873l-48.472-1.747c-.109.218-.437.436-.764.764zm2.511-2.511l47.271 1.747c0-.328.109-.546.109-.873l-46.616-1.638c-.437.218-.546.546-.764.764zm1.746-2.511l45.743 1.747c0-.327 0-.546.109-.873l-45.197-1.638c-.436.218-.546.437-.655.764zm1.092-2.62l44.542 1.638c0-.327 0-.546-.109-.873l-44.214-1.747c.109.436-.001.764-.219.982zm.873-2.62l43.341 1.638c0-.327 0-.546-.109-.873l-43.013-1.638c-.109.327-.219.655-.219.873zm.328-2.62l42.358 1.528c0-.327-.218-.655-.218-.873l-42.14-1.528c-.109.327 0 .654 0 .873zm40.83-1.965l-41.157-1.638c0 .328 0 .546.109.873l41.485 1.528c0-.108-.219-.436-.437-.763zm-1.529-2.62l-40.066-1.528c0 .327.218.655.218.873l40.502 1.528c-.326-.218-.435-.546-.654-.873zm-2.292-2.73l-38.21-1.528c0 .328 0 .546.109.873l39.083 1.419c-.436-.109-.655-.436-.982-.764zm-3.057-2.62c-.218 0-.218-.109-.328-.109l-33.843-1.31c-.109.218-.327.546-.437.873l35.699 1.31c-.436-.109-.763-.436-1.091-.764zm-7.533-2.947l-21.834-.873c-.873.218-1.638.437-2.511.655l27.62 1.092c-1.091-.219-2.292-.656-3.275-.874z" fill="#b3c9ee"/></g><defs><clipPath id="g"><path d="M0 0h267v250H0z"/></clipPath></defs><g clip-path="url(#g)" transform="matrix(.6367 0 0 .636 1298 929)"><linearGradient id="h" gradientUnits="userSpaceOnUse" x1="80.101" y1="198.553" x2="186.9" y2="198.553" gradientTransform="matrix(1 0 0 -1 0 252)"><stop offset="0" stop-color="#efefef"/><stop offset=".554" stop-color="#d7d8d9"/></linearGradient><path fill="url(#h)" d="M133.501 106.895c-29.444 0-53.399-23.976-53.399-53.447S104.056 0 133.501 0 186.9 23.976 186.9 53.447s-23.955 53.448-53.399 53.448zm0-93.736c-22.196 0-40.253 18.073-40.253 40.29s18.058 40.29 40.253 40.29 40.253-18.074 40.253-40.29-18.058-40.29-40.253-40.29z"/><linearGradient id="i" gradientUnits="userSpaceOnUse" x1="0" y1="103.044" x2="267" y2="103.044" gradientTransform="matrix(1 0 0 -1 0 252)"><stop offset="0" stop-color="#efefef"/><stop offset=".554" stop-color="#d7d8d9"/></linearGradient><path fill="url(#i)" d="M0 47.911h267V250H0z"/><path fill="#D7D8D9" d="M148.181 130.447c-20.91 0-43.282-3.501-66.884-10.488-22.1-6.542-38.382-14.251-51.239-24.258C13.746 83.006 2.919 65.752.355 48.365l1.083-.16C3.963 65.315 14.64 82.312 30.73 94.836c12.746 9.921 28.912 17.57 50.876 24.072 37.197 11.011 71.315 13.328 101.405 6.887 12.897-2.761 41.512-18.397 49.2-30.168l.918.6c-7.817 11.967-36.826 27.845-49.889 30.641-11.153 2.386-22.859 3.579-35.059 3.579z"/><path fill="#EFEFEF" d="M118.021 114.262h30.956v30.984h-30.956z"/><path fill="#FFF" d="M208.386 174.849a.313.313 0 10-.434-.087.31.31 0 00.434.087zm17.461-26.948a.32.32 0 00.378-.25.293.293 0 00-.217-.353c-.012-.003-.027-.007-.041-.007a.31.31 0 00-.37.23.327.327 0 00.25.38zm-9.72 13.079a.347.347 0 00.45-.098.325.325 0 10-.548-.353.352.352 0 00.098.451zm25.341 33.255a.61.61 0 00.844-.125.582.582 0 00-.105-.834.61.61 0 00-.844.125.594.594 0 00.105.834zm-11.574-8.765a.6.6 0 00.84-.137.6.6 0 00-.124-.832.592.592 0 00-.833.105.646.646 0 00.117.864zm-11.585-8.792c.26.2.63.151.829-.109l.012-.016a.582.582 0 00-.105-.834.643.643 0 00-.863.116.611.611 0 00.127.843zm-3.82 32.934a.594.594 0 00.186-.822.594.594 0 00-.822-.186.598.598 0 00-.195.809.617.617 0 00.831.199zm-7.345-12.548a.594.594 0 00.186-.822.594.594 0 00-.822-.186.598.598 0 00-.195.809.615.615 0 00.831.199zm40.82-31.458a.605.605 0 00.73-.442.586.586 0 00-.414-.719l-.004-.001a.575.575 0 00-.728.367l-.014.045a.636.636 0 00.43.75zm-14.062-3.683a.637.637 0 00.748-.431.607.607 0 00-.441-.73.597.597 0 00-.727.428l-.003.01a.586.586 0 00.423.723zm-14.04-3.675a.574.574 0 00.712-.393l.007-.027a.597.597 0 00-.401-.742c-.01-.003-.019-.005-.028-.009a.603.603 0 00-.298 1.169l.008.002zm-17.851 58.243a.541.541 0 00.263-.708.534.534 0 10-.971.445.54.54 0 00.708.263zm36.523-40.187a.566.566 0 00.703-.334.519.519 0 00-.302-.668l-.023-.007a.53.53 0 00-.689.305l-.003.01a.562.562 0 00.314.694zm-12.148-4.471a.532.532 0 00.675-.323.519.519 0 00-.302-.668l-.023-.007a.535.535 0 00-.692.304l-.003.01a.553.553 0 00.345.684zm-12.196-4.467a.535.535 0 00.692-.304l.003-.01a.506.506 0 00-.276-.659c-.015-.007-.033-.012-.048-.018a.535.535 0 00-.692.304l-.003.01a.548.548 0 00.324.677zm4.201 29.012a.542.542 0 00.758-.047.53.53 0 00-.027-.749.563.563 0 00-.768.018.558.558 0 00.037.778zm-9.536-8.802a.515.515 0 00.75-.025.53.53 0 00-.027-.749.563.563 0 00-.768.018.538.538 0 00.045.756zm27.376-37.56a.508.508 0 00.498-.516l-.001-.032a.535.535 0 00-.541-.527l-.018.001a.554.554 0 00-.506.57.526.526 0 00.546.508c.006-.001.014-.005.022-.004zm-12.964.541a.553.553 0 00.526-.56.541.541 0 00-1.083.035.529.529 0 00.557.525zm-9.87 73.683a.644.644 0 00.884-.058.622.622 0 00-.039-.874.636.636 0 00-.884.058.622.622 0 00.039.874zm-11.112-10.046a.619.619 0 10.834-.915.619.619 0 00-.834.915zm32.639-49.245a.652.652 0 00.599-.669.626.626 0 00-1.247.077c.024.339.309.6.648.592zm-14.947.771a.633.633 0 00.59-.648.62.62 0 10-1.237.057.63.63 0 00.647.591zm3.092 29.655a.66.66 0 00.8-.384.626.626 0 00-.393-.781.606.606 0 00-.785.354l-.003.012a.624.624 0 00.381.799c-.002-.001 0 0 0 0zm-14.121-5.021a.628.628 0 00.799-.382l.001-.002a.604.604 0 00-.372-.77.616.616 0 00-.428 1.154zm13.195 15.258a.615.615 0 00.425-1.153.615.615 0 00-.78.342.629.629 0 00.355.811zm-13.835-5.574a.626.626 0 00.808-.356.639.639 0 00-.335-.802.658.658 0 00-.828.345.644.644 0 00.355.813zm12.121-25.593a.633.633 0 00.611-.64.61.61 0 00-.62-.601.602.602 0 00-.619.61.616.616 0 00.609.629.03.03 0 00.019.002z"/></g><g><defs><clipPath id="j"><path d="M0 0h143v500H0z"/></clipPath></defs><g clip-path="url(#j)" transform="matrix(1.23077 0 0 1.232 1167 470)"><path fill="#E94A47" d="M12.955 167.529c1.334-5.344 3.617-10.397 5.888-15.419 1.114-2.464 2.23-4.927 3.345-7.391.393-.87.815-1.777 1.575-2.361.663-.511 1.51-.716 2.332-.878 9.247-1.83 19.194.136 27.035 5.344-2.643 14.501-1.264 29.707 3.946 43.503a130.171 130.171 0 01-44.226 10.082c-1.291-10.948-2.564-22.181.105-32.88z"/><path fill="#D62929" d="M43.901 473.833c8.439-1.606 35.64-.908 35.64-.908s7.236 16.254 7.151 26.957c-12.586.017-25.173.033-37.759.051-21.153.028-26.156.227-48.492-.227-.475-4.994 9.539-14.164 27.798-18.446 4.034-.948 11.588-6.652 15.662-7.427z"/><path fill="#151A4F" d="M46.827 268.953c-3.68-15.807-7.543-32.032-17.027-45.453-.989-1.399-2.22-2.874-3.968-3.125-3.384-.484-5.235 3.603-5.815 6.823-15.186 84.324 19.64 161.055 23.881 246.521 11.048.681 24.948 1.022 35.997.681-3.011-17.706 4.758-22.249 3.921-40.171-.763-16.328-6.924-22.17-8.196-38.469-1.352-17.313 4.659-22.544.713-39.491-4.71-20.215-24.799-67.099-29.506-87.316z"/><path fill="#F2A19C" d="M47.373 26.525a16.632 16.632 0 011.826 3.529c-2.39 3.858-3.81 7.24-6.199 11.099-.9 1.023-1.93.176-2.339-.129-.65-.484-.154-1.492.333-2.138a18.69 18.69 0 002.747-5.17c-.653.213-1.009.888-1.368 1.469a9.435 9.435 0 01-4.262 3.679c-.576.248-1.352.394-1.744-.093-.416-.517-.044-1.268.32-1.823a48.577 48.577 0 004.697-9.137c.093-.241.19-.491.378-.67.46-.436 1.2-.25 1.825-.123a6.731 6.731 0 003.909-.379c.305.933-.675-.926-.123-.114z"/><path fill="#FFBEB6" d="M23.06 46.757a309.754 309.754 0 00-.105 64.499c-5.188-.536-14.011 3.705-19.203 4.21.548-16.642 5.714-37.507 8.327-53.953 1.679-10.565 3.946-21.453 10.323-30.067 3.188.964 6.318-1.353 9.466-2.438 6.682-2.304 13.961 1.061 19.769 5.076.712.491 1.477 1.094 1.583 1.949.268 2.182-3.196 2.262-5.246 1.439-4.131-1.659-8.499-3.088-12.945-2.814-4.447.275-9.009 2.596-10.798 6.653-.751 1.708-.974 3.591-1.171 5.446z"/><path fill="#FFBEB6" d="M22.41 31.398c2.365-1.939 5.314-2.997 8.199-4.022 2.294-.815 4.59-1.628 6.883-2.443 1.154-.41 2.314-.82 3.524-1.022 1.571-.26 3.176-.158 4.769-.138 6.473.081 8.611-.497 14.825-2.307.857-.25 6.067-.823 6.941-.64.874.184 1.657.574 1.511 1.451-.201 1.197-1.764 1.485-2.98 1.574-9.612.697-18.583 6.132-28.212 5.739-.768-.031-1.548-.099-2.295.079-.832.199-1.559.688-2.301 1.114a17.27 17.27 0 01-7.026 2.22c-1.498.136-3.38-.18-3.838-1.605zM104.485 166.209c-11.588 10.831-24.225 16.39-39.634 20.295-6.827 1.73-5.197 1.643-8.123-.445-3.642-2.599-2.964-7.251-3.66-11.656-1.197-7.591-2.348-15.624.552-22.746 1.6 9.011 4.195 19.737 9.998 26.84 13.599-11.862 29.337-24.966 44.39-34.943l.62 21.314c-.966-.574-3.175 1.916-4.143 1.341z"/><path fill="#E94A47" d="M100.208 473.833c8.439-1.606 35.64-.908 35.64-.908s7.236 16.254 7.151 26.957c-12.586.017-25.173.033-37.759.051-21.153.028-26.156.227-48.492-.227-.475-4.994 9.539-14.164 27.798-18.446 4.036-.948 11.59-6.652 15.662-7.427z"/><path fill="#428DFC" d="M98.526 146.342c-5.614-5.507-10.29-13.924-13.847-20.924-6.237-12.268-12.625-26.27-8.099-39.258 2.679-7.686 9.239-13.922 17.081-16.234-.585 12.1 3.587 23.876 7.839 35.229 6.039 16.129 11.514 28.71 18.113 44.621.834 2.01 2.204 6.502 1.615 7.599-2.556 4.767-5.027 8.384-9.24 9.289-4.213.905-9.087 1.855-11.159 5.616-6.32-7.028-9.651-10.684-7.887-19.948 3.384-3.245 4.492-3.764 5.584-5.99z"/><linearGradient id="k" gradientUnits="userSpaceOnUse" x1="1266.04" y1="1351.457" x2="1728.153" y2="1351.457" gradientTransform="translate(-219.979 -135.287) scale(.1832)"><stop offset="0" stop-color="#a1c3fc"/><stop offset="1" stop-color="#81aef2"/></linearGradient><path fill="url(#k)" d="M91.843 84.746c-5.553 11.882-21.839 33.714-28.535 44.999-11.237 18.936-7.925 16.854-11.222 38.597-13.388-.933-28.436-2.938-40.126 2.489 7.014-31.78 14.499-52.249 22.453-71.899s21.901-38.888 42.48-44.345c7.32-1.941 17.152-.671 19.488 6.497 1.26 3.872-2.812 19.97-4.538 23.662z"/><path fill="#F2A19C" d="M76.686 56.029c3.208 4.431 12.652 4.254 14.613 1.418-1.476-9.869.185-17.696 3.763-27.016a58.73 58.73 0 01-17.97 4.27c2.258 7.287 2.369 14.219-.406 21.328z"/><path fill="#FFBEB6" d="M74.806 8.05c.762 2.747-2.654 7.266-3.689 9.924-2.374 6.088-1.566 14.214 4.091 17.53 5.277 3.094 12.084.656 17.203-2.69 4.324-2.826 8.297-6.346 10.911-10.789 2.616-4.44 3.761-9.885 2.362-14.841-.762-2.699-3.287-5.593-5.908-4.56.137-.664-2.199-.875-2.063-1.538-5.225-.926-8.35.027-12.503 3.314-2.548 2.015-3.462 3.161-6.564 2.182-1.451-.459-3.586-1.428-4.027.023-.145.47.055.969.187 1.445z"/><path fill="#23286B" d="M110.583 5.832c-5.228-4.651-9.088-4.772-16.07-5.443-.21 7.064-5.046 12.999-8.782 19.011-3.735 6.012-6.457 13.984-2.542 19.882 2.144 3.23 6.023 5.322 7.22 9.005 1.021 3.145-.222 6.517-.505 9.809-.934 10.851 3.921 21.901 12.378 28.816.548-5.698 7.556-8.315 13.31-8.22 5.754.094 11.928 1.499 16.984-1.236 5.351-2.896-.85-8.102 3.433-12.41 3.456-3.477-3.256-14.575-13.984-19.387-5.265-2.361-5.769-14.006-4.449-19.598 2.099-8.893-2.966-16.646-6.993-20.229z"/><linearGradient id="l" gradientUnits="userSpaceOnUse" x1="1261.05" y1="2501.736" x2="1960.761" y2="2501.736" gradientTransform="translate(-219.979 -135.287) scale(.1832)"><stop offset="0" stop-color="#23286b"/><stop offset="1" stop-color="#151a4f"/></linearGradient><path fill="url(#l)" d="M70.872 251.153c-1.437-4.256-2.931-13.926-2.443-18.374.307-2.804 1.612-5.421 2.148-8.194 1.106-5.73-1.139-11.516-3.346-16.949l-14.493-35.698a220.372 220.372 0 00-41.607 6.713c-2.155 105.886 36.601 202.009 89 295.342 8.652.656 26.776-1.368 35.427-.713 1.104.083 7.196-18.223.778-38.711-2.197-7.014-13.121-21.356-15.587-28.289-3.408-9.574-5.953-27.905-7.014-37.966-2.604-24.679-19.469-27.942-24.87-52.203-2.405-10.808-13.178-50.698-17.993-64.958z"/><path fill="#23286B" d="M93.343 87.654a.609.609 0 01-.306-.082 21.898 21.898 0 01-6.068-5.208c-2.316-2.871-3.665-6.061-3.901-9.228-.226-3.037.567-6.005 1.335-8.876.684-2.56 1.393-5.207 1.337-7.828-.083-3.92-2.102-8.778-4.055-13.478-.751-1.809-1.461-3.515-2.066-5.173-2.426-6.649-.675-10.764 2.276-16.283 1.158-2.167 2.895-4.362 4.735-6.688 3.08-3.893 6.265-7.918 6.682-11.885a.595.595 0 01.665-.536c.333.033.574.33.539.662-.453 4.314-3.748 8.479-6.935 12.506-1.805 2.282-3.51 4.437-4.617 6.507-3.265 6.11-4.294 9.587-2.205 15.306.596 1.633 1.299 3.33 2.045 5.125 1.995 4.801 4.059 9.767 4.146 13.912.06 2.793-.671 5.523-1.377 8.163-.776 2.902-1.51 5.643-1.298 8.477.276 3.692 2.13 6.696 3.639 8.564a20.695 20.695 0 005.736 4.921.601.601 0 01-.307 1.122zM82.589 10.947a.618.618 0 01-.297-.077c-2.244-1.255-3.13-3.587-3.003-5.222.025-.331.314-.604.651-.553a.604.604 0 01.558.647c-.083 1.055.485 3.013 2.389 4.078a.6.6 0 01-.298 1.127z"/><path fill="#FFBEB6" d="M56.076 171.812c-1.267-1.085-2.197-2.5-3.346-3.71-1.554-1.636-3.482-2.865-5.389-4.076-.804-.51-1.631-1.031-2.566-1.207-.475-.089-1.015-.07-1.375.252-.809.725-.014 2.022.77 2.774l6.643 6.377c1.385 1.331 2.505 2.079 3.484 3.728.702 1.184 1.138 3.218 1.813 4.419.512.908 1.495 1.663 2.442 2.106.947.443 3.624-.473 4.268-1.293-1.345-2.332-2.161-4.691-3.784-6.843-.783-1.038-1.971-1.68-2.96-2.527z"/><path fill="#89B3F4" d="M76.847 63.013c-.22-2.034-1.777-5.971-3.771-6.478-5.665-1.438-16.094 1.498-20.565 9.205-8.118 13.995-21.203 33.215-28.648 43.986-.586-4.393-1.305-9.93-1.305-9.93s-7.083 1.838-7.837 1.952c-5.355.816-9.951 1.587-14.524 1.08-.762 8.846.762 13.142 3.303 21.482 1.327 4.353 5.225 18.203 6.182 20.866 3.219 1.626 12.942-.367 22.606-10.916 4.61-5.033 29.257-38.23 33.591-44.658 4.334-6.426 11.996-17.042 10.968-26.589z"/><path fill="#23286B" d="M70.728 70.969a.6.6 0 01-.452-1.003c3.653-4.064 6.182-7.911 7.733-11.762 1.869-4.643 2.307-9.496 1.237-13.67-.358-1.391-.897-2.779-1.416-4.12-.777-2.004-1.582-4.078-1.841-6.279-.804-6.838 3.745-13.037 7.796-17.674l1.07-1.22c3.924-4.452 7.984-9.056 8.921-14.735a.595.595 0 01.696-.496c.33.054.553.364.499.692-.992 6.021-5.167 10.756-9.205 15.335l-1.067 1.215c-3.887 4.449-8.255 10.373-7.506 16.744.241 2.049.982 3.959 1.767 5.983.533 1.375 1.085 2.795 1.46 4.255 1.135 4.419.679 9.538-1.285 14.415-1.604 3.984-4.206 7.946-7.955 12.117a.604.604 0 01-.452.203z"/><path fill="#FFF" d="M11.851 201.545c.086-.099.08-.191-.02-.277s-.193-.079-.278.02c-.086.099-.08.191.02.277.099.086.186-.013.278-.02zm4.049-19.224c.093-.006.179-.106.174-.198-.006-.093-.107-.178-.199-.173-.093.006-.179.106-.174.198-.079.192.113.271.199.173zm-2.681 9.565c.093-.006.185-.014.272-.112-.006-.093-.014-.184-.113-.271-.093.006-.185.014-.272.112-.079.191.02.278.113.271zm21.858 13.321c.193.079.371-.026.452-.216.08-.19-.026-.369-.218-.45-.193-.079-.371.026-.452.216-.174.199.031.462.218.45zm-8.57-2.369c.193.079.371-.026.452-.216.08-.191-.026-.369-.218-.45-.193-.079-.371.026-.452.216-.08.192.024.37.218.45zm-8.577-2.463c.193.079.371-.026.452-.216.08-.191-.026-.369-.218-.45-.193-.079-.371.026-.452.216-.081.192.026.371.218.45zm5.119 19.511a.589.589 0 00-.039-.555.6.6 0 00-.558.038c-.08.191-.067.376.032.461.207.266.392.254.565.056zm-7.014-5.45a.589.589 0 00-.039-.555.6.6 0 00-.558.038c-.08.191-.067.376.032.461.199.175.478.154.565.056zm16.388-26.87c.185-.014.359-.211.345-.395-.014-.184-.212-.357-.398-.343-.185.014-.359.211-.345.395.013.185.213.357.398.343zm-8.891.996c.185-.014.359-.211.345-.395-.014-.184-.212-.357-.398-.343-.185.014-.359.211-.345.395.013.185.212.356.398.343zm-8.799.989c.185-.014.359-.211.345-.395-.014-.184-.212-.357-.398-.343-.185.014-.359.211-.345.395.021.277.213.357.398.343zM17.45 226.5c.086-.099.16-.383-.032-.461-.099-.085-.385-.159-.463.032-.086.099-.16.383.032.461.106.178.292.165.463-.032zm11.909-30.827c.185-.014.364-.118.352-.304-.014-.184-.113-.271-.306-.35-.185.014-.364.118-.352.304.014.186.12.364.306.35zm-7.922.186c.185-.014.364-.118.352-.304-.014-.184-.113-.271-.306-.35-.185.014-.364.118-.352.304.014.185.119.362.306.35zm-7.929.093c.185-.014.364-.118.352-.304-.014-.184-.113-.271-.306-.35-.185.014-.364.118-.352.304.022.276.121.361.306.35zm8.85 15.534c.193.079.371-.026.452-.216.08-.191-.026-.369-.218-.45-.193-.079-.371.026-.452.216-.079.191.033.461.218.45zm-7.387-2.825c.193.079.371-.026.458-.125.08-.191-.026-.369-.218-.45-.193-.079-.371.026-.452.216-.087.101.019.28.212.359zm7.299-27.345c.179-.106.266-.205.16-.383-.107-.178-.298-.258-.385-.159-.179.106-.259.297-.153.475a.95.95 0 00.378.067zm-7.247 3.11c.179-.106.259-.297.153-.474-.107-.178-.298-.258-.477-.152-.179.106-.259.297-.16.383.113.268.305.347.484.243-.093.005 0 0 0 0zm10.593 44.007c.193.079.371-.026.452-.216.08-.191-.026-.369-.218-.45-.193-.079-.371.026-.452.216-.08.192.027.37.218.45zm-8.536-3.208c.193.079.371-.026.452-.216.08-.191-.026-.369-.218-.45-.193-.079-.371.026-.452.216-.086.101.026.371.218.45zm7.772-35.177c.179-.106.259-.297.153-.474-.107-.178-.298-.258-.477-.152-.179.106-.259.297-.153.474.011.184.298.258.477.152zm-8.416 3.748c.179-.106.259-.297.153-.474-.107-.178-.298-.258-.477-.152-.179.106-.259.297-.153.474.099.085.298.257.477.152zm8.333 16.127c.185-.014.359-.211.345-.395-.014-.184-.212-.357-.398-.343-.185.014-.359.211-.345.395.013.183.212.356.398.343zm-9.13.27c.185-.014.359-.211.345-.395-.014-.184-.212-.357-.398-.343-.185.014-.359.211-.345.395.013.184.12.362.398.343zm10.864 5.737c.185-.014.359-.211.345-.395-.014-.184-.212-.357-.398-.343-.185.014-.364.118-.345.395.013.184.211.354.398.343zm-9.156-.1c.185-.014.359-.211.345-.395-.014-.184-.118-.362-.398-.343-.185.014-.359.211-.438.403.107.176.306.347.491.335zm1.3-17.176a.51.51 0 00.246-.482.514.514 0 00-.484-.245.51.51 0 00-.246.482c.014.186.299.258.484.245z"/></g></g></svg>